<?xml version="1.0" encoding="UTF-8"?>
<svg width="512" height="512" viewBox="0 0 512 512" xmlns="http://www.w3.org/2000/svg">
  <defs>
    <linearGradient id="blueviolet" x1="0" y1="0" x2="1" y2="1">
      <stop offset="0%" stop-color="#36c3f7"/>
      <stop offset="100%" stop-color="#7c3aed"/>
    </linearGradient>
  </defs>
  <rect width="512" height="512" rx="100" fill="#181c2f"/>
  <!-- Person 1 (links) -->
  <circle cx="170" cy="210" r="55" stroke="url(#blueviolet)" stroke-width="12" fill="none"/>
  <rect x="120" y="260" width="100" height="110" rx="40" stroke="url(#blueviolet)" stroke-width="12" fill="none"/>
  <!-- Daumen hoch -->
  <path d="M140 320 Q130 340 150 350 Q160 355 170 340 Q175 330 170 320 Q165 310 150 320" stroke="url(#blueviolet)" stroke-width="12" fill="none"/>
  <path d="M170 320 Q180 310 190 320 Q200 330 190 340 Q180 350 170 340" stroke="url(#blueviolet)" stroke-width="12" fill="none"/>
  <!-- Person 2 (rechts) -->
  <circle cx="320" cy="210" r="55" stroke="url(#blueviolet)" stroke-width="12" fill="none"/>
  <rect x="270" y="260" width="100" height="110" rx="40" stroke="url(#blueviolet)" stroke-width="12" fill="none"/>
  <!-- Stern auf Brust -->
  <polygon points="320,285 327,305 348,305 331,318 338,338 320,326 302,338 309,318 292,305 313,305" fill="none" stroke="url(#blueviolet)" stroke-width="8"/>
  <!-- Stern über Kopf -->
  <polygon points="320,120 326,135 342,135 329,145 335,160 320,150 305,160 311,145 298,135 314,135" fill="none" stroke="url(#blueviolet)" stroke-width="8"/>
</svg> 